<?xml version="1.0" standalone="no"?>
<!DOCTYPE svg PUBLIC "-//W3C//DTD SVG 20010904//EN"
 "http://www.w3.org/TR/2001/REC-SVG-20010904/DTD/svg10.dtd">
<svg version="1.0" xmlns="http://www.w3.org/2000/svg"
 width="1082.000000pt" height="325.000000pt" viewBox="0 0 1082.000000 325.000000"
 preserveAspectRatio="xMidYMid meet">

<g transform="translate(0.000000,325.000000) scale(0.100000,-0.100000)"
fill="#000000" stroke="none">
<path d="M630 1680 l0 -940 25 0 25 0 0 940 0 940 -25 0 -25 0 0 -940z"/>
<path d="M1180 1680 l0 -940 25 0 25 0 0 940 0 940 -25 0 -25 0 0 -940z"/>
<path d="M1740 1680 l0 -940 30 0 30 0 0 940 0 940 -30 0 -30 0 0 -940z"/>
<path d="M2310 1680 l0 -940 25 0 25 0 0 940 0 940 -25 0 -25 0 0 -940z"/>
<path d="M2870 1680 l0 -940 30 0 30 0 0 940 0 940 -30 0 -30 0 0 -940z"/>
<path d="M3430 1680 l0 -940 25 0 25 0 0 940 0 940 -25 0 -25 0 0 -940z"/>
<path d="M3942 1808 l3 -803 23 -47 c33 -65 77 -112 145 -152 60 -35 167 -66
231 -66 l36 0 0 935 0 935 -220 0 -221 0 3 -802z"/>
<path d="M4620 1670 l0 -940 220 0 220 0 0 402 0 402 45 -49 c67 -74 181 -229
252 -341 178 -285 322 -384 591 -409 l72 -7 0 941 0 941 -220 0 -220 0 -2
-501 -3 -500 -79 132 c-44 72 -118 209 -166 303 -88 175 -155 287 -218 365
-42 52 -140 126 -202 153 -55 24 -175 48 -241 48 l-49 0 0 -940z"/>
<path d="M6741 2590 c-178 -47 -342 -190 -450 -392 -74 -137 -76 -152 -76
-523 0 -292 2 -337 18 -389 59 -190 223 -394 384 -479 136 -70 134 -70 586
-75 l407 -4 0 221 0 221 -358 0 c-411 0 -433 3 -509 73 -53 48 -81 100 -90
162 l-6 45 482 0 481 0 0 220 0 220 -477 2 -478 3 2 48 c2 82 67 167 158 208
33 16 67 19 206 19 91 0 261 3 377 7 l212 6 0 214 0 213 -397 -1 c-360 0 -405
-2 -472 -19z"/>
<path d="M8334 2599 c-126 -21 -263 -93 -332 -175 -56 -66 -129 -200 -159
-289 -27 -80 -27 -81 -31 -430 -4 -406 1 -446 72 -591 104 -209 217 -310 408
-361 54 -14 135 -17 576 -20 l512 -4 0 508 c0 572 1 561 -76 619 l-37 29 -309
3 -308 3 0 -196 0 -195 180 0 180 0 0 -166 0 -165 -277 3 c-310 4 -316 5 -393
75 -24 21 -54 61 -66 88 -23 49 -24 57 -24 340 0 283 1 291 24 340 13 29 44
69 71 93 81 71 89 72 592 72 l443 0 0 215 0 215 -497 -1 c-274 -1 -521 -5
-549 -10z"/>
<path d="M9622 1813 l3 -798 26 -55 c14 -30 46 -74 70 -98 70 -69 203 -122
304 -122 l35 0 0 935 0 935 -220 0 -220 0 2 -797z"/>
<path d="M877 2590 c-47 -14 -98 -60 -119 -108 -57 -128 36 -265 178 -264 98
1 174 70 182 166 6 71 -11 117 -58 160 -55 49 -119 65 -183 46z"/>
<path d="M1405 2354 c-45 -23 -66 -45 -86 -89 -47 -101 -6 -209 96 -256 131
-61 279 51 262 197 -6 58 -47 119 -97 144 -48 24 -132 26 -175 4z"/>
<path d="M833 2125 c-175 -105 -77 -379 125 -351 150 20 215 204 113 320 -52
59 -166 74 -238 31z"/>
<path d="M1964 2130 c-89 -45 -127 -153 -85 -245 65 -145 272 -152 340 -13 37
77 21 180 -35 229 -59 52 -149 64 -220 29z"/>
<path d="M1402 1909 c-125 -62 -136 -250 -19 -327 34 -23 52 -27 107 -27 84 0
136 31 170 100 80 165 -93 335 -258 254z"/>
<path d="M3128 1750 c-90 -28 -138 -93 -138 -187 0 -108 76 -184 185 -185 160
-2 248 179 150 308 -40 53 -136 84 -197 64z"/>
<path d="M1975 1692 c-142 -67 -152 -260 -19 -338 38 -23 53 -26 108 -22 75 5
124 36 156 98 42 82 14 197 -60 246 -52 35 -131 41 -185 16z"/>
<path d="M2532 1549 c-125 -63 -136 -245 -20 -325 35 -25 51 -29 108 -29 54 0
73 5 102 24 114 78 117 245 6 319 -56 36 -137 41 -196 11z"/>
<path d="M1426 1475 c-141 -50 -170 -240 -50 -331 34 -26 45 -29 114 -29 69 0
80 3 114 29 123 93 85 295 -62 336 -48 13 -68 12 -116 -5z"/>
<path d="M3095 1298 c-32 -17 -76 -61 -91 -90 -8 -15 -14 -53 -14 -86 0 -113
76 -187 192 -187 47 1 65 6 99 30 114 81 110 253 -7 321 -45 26 -141 33 -179
12z"/>
<path d="M2002 1258 c-79 -17 -142 -103 -142 -193 1 -48 35 -111 79 -143 76
-55 170 -50 241 14 47 43 64 89 58 160 -10 115 -117 189 -236 162z"/>
<path d="M2554 1120 c-40 -13 -100 -74 -115 -117 -17 -52 -6 -126 25 -173 77
-117 264 -103 326 25 43 88 14 190 -67 244 -40 26 -121 36 -169 21z"/>
</g>
</svg>
